{
	"accessors" : 
	[
		{
			"bufferView" : 2,
			"byteOffset" : 0,
			"componentType" : 5126,
			"count" : 9922,
			"max" : 
			[
				1,
				1,
				1,
				1
			],
			"min" : 
			[
				0.006584956776350737,
				0.006584956776350737,
				0.006584956776350737,
				1
			],
			"name" : "accessor_color_m0-PolyPaper14_-473412",
			"type" : "VEC4"
		},
		{
			"bufferView" : 2,
			"byteOffset" : 158752,
			"componentType" : 5126,
			"count" : 9652,
			"max" : 
			[
				1,
				1,
				1,
				1
			],
			"min" : 
			[
				0.006584956776350737,
				0.006584956776350737,
				0.006584956776350737,
				1
			],
			"name" : "accessor_color_m1-PolyPaper21_-473460",
			"type" : "VEC4"
		},
		{
			"bufferView" : 2,
			"byteOffset" : 313184,
			"componentType" : 5126,
			"count" : 1770,
			"max" : 
			[
				1,
				1,
				1,
				1
			],
			"min" : 
			[
				0.006584956776350737,
				0.006584956776350737,
				0.006584956776350737,
				1
			],
			"name" : "accessor_color_m2-PolyPaper23_-474912",
			"type" : "VEC4"
		},
		{
			"bufferView" : 2,
			"byteOffset" : 341504,
			"componentType" : 5126,
			"count" : 9764,
			"max" : 
			[
				1,
				1,
				1,
				1
			],
			"min" : 
			[
				0.006584956776350737,
				0.006584956776350737,
				0.006584956776350737,
				1
			],
			"name" : "accessor_color_m3-PolyPaper21_-473356",
			"type" : "VEC4"
		},
		{
			"bufferView" : 2,
			"byteOffset" : 497728,
			"componentType" : 5126,
			"count" : 9880,
			"max" : 
			[
				1,
				1,
				1,
				1
			],
			"min" : 
			[
				0.006584956776350737,
				0.006584956776350737,
				0.006584956776350737,
				1
			],
			"name" : "accessor_color_m4-PolyPaper21_-473792",
			"type" : "VEC4"
		},
		{
			"bufferView" : 0,
			"byteOffset" : 0,
			"componentType" : 5123,
			"count" : 15504,
			"max" : 
			[
				9921
			],
			"min" : 
			[
				0
			],
			"name" : "accessor_indices_0_m0-PolyPaper14_-473412",
			"type" : "SCALAR"
		},
		{
			"bufferView" : 0,
			"byteOffset" : 31008,
			"componentType" : 5123,
			"count" : 14868,
			"max" : 
			[
				9651
			],
			"min" : 
			[
				0
			],
			"name" : "accessor_indices_0_m1-PolyPaper21_-473460",
			"type" : "SCALAR"
		},
		{
			"bufferView" : 0,
			"byteOffset" : 60744,
			"componentType" : 5123,
			"count" : 2712,
			"max" : 
			[
				1769
			],
			"min" : 
			[
				0
			],
			"name" : "accessor_indices_0_m2-PolyPaper23_-474912",
			"type" : "SCALAR"
		},
		{
			"bufferView" : 0,
			"byteOffset" : 66168,
			"componentType" : 5123,
			"count" : 15072,
			"max" : 
			[
				9763
			],
			"min" : 
			[
				0
			],
			"name" : "accessor_indices_0_m3-PolyPaper21_-473356",
			"type" : "SCALAR"
		},
		{
			"bufferView" : 0,
			"byteOffset" : 96312,
			"componentType" : 5123,
			"count" : 15216,
			"max" : 
			[
				9879
			],
			"min" : 
			[
				0
			],
			"name" : "accessor_indices_0_m4-PolyPaper21_-473792",
			"type" : "SCALAR"
		},
		{
			"bufferView" : 1,
			"byteOffset" : 119064,
			"componentType" : 5126,
			"count" : 9922,
			"max" : 
			[
				1,
				1,
				1
			],
			"min" : 
			[
				-1,
				-1,
				-1
			],
			"name" : "accessor_normal_m0-PolyPaper14_-473412",
			"type" : "VEC3"
		},
		{
			"bufferView" : 1,
			"byteOffset" : 353952,
			"componentType" : 5126,
			"count" : 9652,
			"max" : 
			[
				0.9999411,
				1,
				1
			],
			"min" : 
			[
				-0.9998444,
				-1,
				-1
			],
			"name" : "accessor_normal_m1-PolyPaper21_-473460",
			"type" : "VEC3"
		},
		{
			"bufferView" : 1,
			"byteOffset" : 491016,
			"componentType" : 5126,
			"count" : 1770,
			"max" : 
			[
				1,
				1,
				1
			],
			"min" : 
			[
				-1,
				-1,
				-1
			],
			"name" : "accessor_normal_m2-PolyPaper23_-474912",
			"type" : "VEC3"
		},
		{
			"bufferView" : 1,
			"byteOffset" : 629424,
			"componentType" : 5126,
			"count" : 9764,
			"max" : 
			[
				1,
				1,
				1
			],
			"min" : 
			[
				-1,
				-1,
				-1
			],
			"name" : "accessor_normal_m3-PolyPaper21_-473356",
			"type" : "VEC3"
		},
		{
			"bufferView" : 1,
			"byteOffset" : 865152,
			"componentType" : 5126,
			"count" : 9880,
			"max" : 
			[
				1,
				1,
				1
			],
			"min" : 
			[
				-1,
				-1,
				-1
			],
			"name" : "accessor_normal_m4-PolyPaper21_-473792",
			"type" : "VEC3"
		},
		{
			"bufferView" : 1,
			"byteOffset" : 0,
			"componentType" : 5126,
			"count" : 9922,
			"max" : 
			[
				2.478949,
				2.488341,
				1.222623
			],
			"min" : 
			[
				-1.380022,
				1.456516,
				-0.7642279
			],
			"name" : "accessor_position_m0-PolyPaper14_-473412",
			"type" : "VEC3"
		},
		{
			"bufferView" : 1,
			"byteOffset" : 238128,
			"componentType" : 5126,
			"count" : 9652,
			"max" : 
			[
				2.479205,
				2.485373,
				1.232491
			],
			"min" : 
			[
				-1.363699,
				1.425889,
				-0.6831636
			],
			"name" : "accessor_position_m1-PolyPaper21_-473460",
			"type" : "VEC3"
		},
		{
			"bufferView" : 1,
			"byteOffset" : 469776,
			"componentType" : 5126,
			"count" : 1770,
			"max" : 
			[
				2.479277,
				2.629464,
				1.095687
			],
			"min" : 
			[
				-1.37324,
				1.554751,
				-0.5502446
			],
			"name" : "accessor_position_m2-PolyPaper23_-474912",
			"type" : "VEC3"
		},
		{
			"bufferView" : 1,
			"byteOffset" : 512256,
			"componentType" : 5126,
			"count" : 9764,
			"max" : 
			[
				1.606459,
				2.453825,
				1.15259
			],
			"min" : 
			[
				-1.350028,
				1.474619,
				-0.7481832
			],
			"name" : "accessor_position_m3-PolyPaper21_-473356",
			"type" : "VEC3"
		},
		{
			"bufferView" : 1,
			"byteOffset" : 746592,
			"componentType" : 5126,
			"count" : 9880,
			"max" : 
			[
				2.462288,
				3.812987,
				1.227566
			],
			"min" : 
			[
				-1.379962,
				1.162919,
				-0.7419668
			],
			"name" : "accessor_position_m4-PolyPaper21_-473792",
			"type" : "VEC3"
		}
	],
	"asset" : 
	{
		"copyright" : "Unknown",
		"generator" : "glTF 1-to-2 Upgrader for Google Blocks",
		"version" : "2.0"
	},
	"bufferViews" : 
	[
		{
			"buffer" : 0,
			"byteLength" : 126744,
			"byteOffset" : 0,
			"name" : "ushortBufferView",
			"target" : 34963
		},
		{
			"buffer" : 0,
			"byteLength" : 983712,
			"byteOffset" : 126744,
			"byteStride" : 12,
			"name" : "vec3BufferView",
			"target" : 34962
		},
		{
			"buffer" : 0,
			"byteLength" : 655808,
			"byteOffset" : 1110456,
			"byteStride" : 16,
			"name" : "vec4BufferView",
			"target" : 34962
		}
	],
	"buffers" : 
	[
		{
			"byteLength" : 1766264,
			"name" : "model",
			"uri" : "model.bin"
		}
	],
	"materials" : 
	[
		{
			"alphaMode" : "OPAQUE",
			"doubleSided" : false,
			"name" : "BlocksPaper",
			"pbrMetallicRoughness" : 
			{
				"baseColorFactor" : 
				[
					1,
					1,
					1,
					1
				],
				"metallicFactor" : 0,
				"roughnessFactor" : 0.6
			}
		},
		{
			"alphaMode" : "BLEND",
			"doubleSided" : false,
			"name" : "BlocksGlass",
			"pbrMetallicRoughness" : 
			{
				"baseColorFactor" : 
				[
					0.2,
					0.2,
					1,
					0.3
				],
				"metallicFactor" : 1,
				"roughnessFactor" : 0.4
			}
		},
		{
			"alphaMode" : "OPAQUE",
			"doubleSided" : true,
			"name" : "BlocksGem",
			"pbrMetallicRoughness" : 
			{
				"baseColorFactor" : 
				[
					1,
					0.4,
					1,
					1
				],
				"metallicFactor" : 0,
				"roughnessFactor" : 0.1
			}
		}
	],
	"meshes" : 
	[
		{
			"name" : "mesh_m0-PolyPaper14_-473412",
			"primitives" : 
			[
				{
					"attributes" : 
					{
						"COLOR_0" : 0,
						"NORMAL" : 10,
						"POSITION" : 15
					},
					"indices" : 5,
					"material" : 0,
					"mode" : 4
				}
			]
		},
		{
			"name" : "mesh_m1-PolyPaper21_-473460",
			"primitives" : 
			[
				{
					"attributes" : 
					{
						"COLOR_0" : 1,
						"NORMAL" : 11,
						"POSITION" : 16
					},
					"indices" : 6,
					"material" : 0,
					"mode" : 4
				}
			]
		},
		{
			"name" : "mesh_m2-PolyPaper23_-474912",
			"primitives" : 
			[
				{
					"attributes" : 
					{
						"COLOR_0" : 2,
						"NORMAL" : 12,
						"POSITION" : 17
					},
					"indices" : 7,
					"material" : 0,
					"mode" : 4
				}
			]
		},
		{
			"name" : "mesh_m3-PolyPaper21_-473356",
			"primitives" : 
			[
				{
					"attributes" : 
					{
						"COLOR_0" : 3,
						"NORMAL" : 13,
						"POSITION" : 18
					},
					"indices" : 8,
					"material" : 0,
					"mode" : 4
				}
			]
		},
		{
			"name" : "mesh_m4-PolyPaper21_-473792",
			"primitives" : 
			[
				{
					"attributes" : 
					{
						"COLOR_0" : 4,
						"NORMAL" : 14,
						"POSITION" : 19
					},
					"indices" : 9,
					"material" : 0,
					"mode" : 4
				}
			]
		}
	],
	"nodes" : 
	[
		{
			"matrix" : 
			[
				1,
				0,
				0,
				0,
				0,
				1,
				0,
				0,
				0,
				0,
				1,
				0,
				0,
				0,
				0,
				1
			],
			"mesh" : 3,
			"name" : "node_MeshObject-159657664-PolyPaper21"
		},
		{
			"matrix" : 
			[
				1,
				0,
				0,
				0,
				0,
				1,
				0,
				0,
				0,
				0,
				1,
				0,
				0,
				0,
				0,
				1
			],
			"mesh" : 0,
			"name" : "node_MeshObject-708670976-PolyPaper14"
		},
		{
			"matrix" : 
			[
				1,
				0,
				0,
				0,
				0,
				1,
				0,
				0,
				0,
				0,
				1,
				0,
				0,
				0,
				0,
				1
			],
			"mesh" : 2,
			"name" : "node_MeshObject-74865728-PolyPaper23"
		},
		{
			"matrix" : 
			[
				1,
				0,
				0,
				0,
				0,
				1,
				0,
				0,
				0,
				0,
				1,
				0,
				0,
				0,
				0,
				1
			],
			"mesh" : 1,
			"name" : "node_MeshObject1867365632-PolyPaper21"
		},
		{
			"matrix" : 
			[
				1,
				0,
				0,
				0,
				0,
				1,
				0,
				0,
				0,
				0,
				1,
				0,
				0,
				0,
				0,
				1
			],
			"mesh" : 4,
			"name" : "node_MeshObject1899078464-PolyPaper21"
		}
	],
	"scene" : 0,
	"scenes" : 
	[
		{
			"extras" : {},
			"name" : "defaultScene",
			"nodes" : 
			[
				1,
				3,
				2,
				0,
				4
			]
		}
	]
}